<svg class="diagram-root" style="background: #f5f6f6" xmlns="http://www.w3.org/2000/svg" xmlns:xlink="http://www.w3.org/1999/xlink"><style>.diagram-root { font-family: "Helvetica Neue", sans-serif; font-size: 12px; } .t { overflow: visible; } .t-bg { y: 40; fill: #fff;   } .th { fill: #005aa0;   } .tht { fill: #fff; font-size: 14px;  } .tf { fill: #323c46; overflow: visible; } .tf.pk { fill: #005aa0; font-weight: bold; } .tf.fk { font-weight: bold; } .ty { fill: #adb1b5; font-weight: normal; text-anchor: end; } .r { fill: transparent; stroke: #c3c3c3; stroke-width: 1; } .l { stroke: 1; } .i { fill: #c2c7ce; stroke: #c2c7ce; } .i.ix { fill: #afb3b6; stroke: #000; } .fa { fill: transparent; overflow: visible; } .fa .bg.hover { fill: #f7f7f7; } .c { cy: 12; r: 4; stroke: #d2d2dc; fill: #d2d2dc; } .hr { fill: transparent; stroke: #323c46; stroke-opacity: 0.035; stroke-width: 13; } .dc { stroke: #fa5a3c; fill: #fa5a3c; } .x { stroke: white; stroke-width: 1; } .hl .th { fill: #1b9bff; } .hl .tht {  } .fhl .bg { fill: #e7f4ff; } .fhls .bg {  } .r.hl { stroke: #1b9bff; } .dim { opacity: 0.25; }</style><g class="drawing-wrapper" transform="translate(390.93428571428717, 505) scale(1,1)"><g class="rs"><path d="M 332.87 411.28 m -1, 0 a 1,1 0 1,0 2,0 a 1,1 0 1,0 -2,0 M 332.87 411.28 m -0.5, 0 a 0.5,0.5 0 1,0 1,0 a 0.5,0.5 0 1,0 -1,0  M332.87 411.28 L332.87 411.28 320.87 411.28 M326.87 417.28 L326.87 417.28 326.87 405.28 M320.87 411.28 Q 289.52 411.28, 258.18 117.35 T 195.49 -176.57 M 183.49 -176.57 m -1, 0 a 1,1 0 1,0 2,0 a 1,1 0 1,0 -2,0 M 183.49 -176.57 m -0.5, 0 a 0.5,0.5 0 1,0 1,0 a 0.5,0.5 0 1,0 -1,0  M183.49 -176.57 L183.49 -176.57 195.49 -176.57 M 183.49 -170.57 m -1, 0 a 1,1 0 1,0 2,0 a 1,1 0 1,0 -2,0 M 183.49 -170.57 m -0.5, 0 a 0.5,0.5 0 1,0 1,0 a 0.5,0.5 0 1,0 -1,0  M183.49 -170.57 L183.49 -170.57 190.49 -176.57 183.49 -182.57 M 183.49 -182.57 m -1, 0 a 1,1 0 1,0 2,0 a 1,1 0 1,0 -2,0 M 183.49 -182.57 m -0.5, 0 a 0.5,0.5 0 1,0 1,0 a 0.5,0.5 0 1,0 -1,0 " id="h4181503174" class="r"></path><path d="M 318.04 34.14 m -1, 0 a 1,1 0 1,0 2,0 a 1,1 0 1,0 -2,0 M 318.04 34.14 m -0.5, 0 a 0.5,0.5 0 1,0 1,0 a 0.5,0.5 0 1,0 -1,0  M318.04 34.14 L318.04 34.14 306.04 34.14 M 318.04 40.14 m -1, 0 a 1,1 0 1,0 2,0 a 1,1 0 1,0 -2,0 M 318.04 40.14 m -0.5, 0 a 0.5,0.5 0 1,0 1,0 a 0.5,0.5 0 1,0 -1,0  M318.04 40.14 L318.04 40.14 311.04 34.14 318.04 28.14 M 318.04 28.14 m -1, 0 a 1,1 0 1,0 2,0 a 1,1 0 1,0 -2,0 M 318.04 28.14 m -0.5, 0 a 0.5,0.5 0 1,0 1,0 a 0.5,0.5 0 1,0 -1,0  M306.04 34.14 Q 278.41 34.14, 250.77 -83.71 T 195.49 -201.57 M 183.49 -201.57 m -1, 0 a 1,1 0 1,0 2,0 a 1,1 0 1,0 -2,0 M 183.49 -201.57 m -0.5, 0 a 0.5,0.5 0 1,0 1,0 a 0.5,0.5 0 1,0 -1,0  M183.49 -201.57 L183.49 -201.57 195.49 -201.57 M189.49 -195.57 L189.49 -195.57 189.49 -207.57" id="h2988830543" class="r"></path><path d="M -182.2 -411.93 m -1, 0 a 1,1 0 1,0 2,0 a 1,1 0 1,0 -2,0 M -182.2 -411.93 m -0.5, 0 a 0.5,0.5 0 1,0 1,0 a 0.5,0.5 0 1,0 -1,0  M-182.2 -411.93 L-182.2 -411.93 -170.2 -411.93 M-176.2 -405.93 L-176.2 -405.93 -176.2 -417.93 M-170.2 -411.93 Q -132.79 -411.93, -95.38 -281.75 T -20.57 -151.57 M -8.57 -151.57 m -1, 0 a 1,1 0 1,0 2,0 a 1,1 0 1,0 -2,0 M -8.57 -151.57 m -0.5, 0 a 0.5,0.5 0 1,0 1,0 a 0.5,0.5 0 1,0 -1,0  M-8.57 -151.57 L-8.57 -151.57 -20.57 -151.57 M -8.57 -145.57 m -1, 0 a 1,1 0 1,0 2,0 a 1,1 0 1,0 -2,0 M -8.57 -145.57 m -0.5, 0 a 0.5,0.5 0 1,0 1,0 a 0.5,0.5 0 1,0 -1,0  M-8.57 -145.57 L-8.57 -145.57 -15.57 -151.57 -8.57 -157.57 M -8.57 -157.57 m -1, 0 a 1,1 0 1,0 2,0 a 1,1 0 1,0 -2,0 M -8.57 -157.57 m -0.5, 0 a 0.5,0.5 0 1,0 1,0 a 0.5,0.5 0 1,0 -1,0 " id="h3974690381" class="r"></path><path d="M 328.21 -407.46 m -1, 0 a 1,1 0 1,0 2,0 a 1,1 0 1,0 -2,0 M 328.21 -407.46 m -0.5, 0 a 0.5,0.5 0 1,0 1,0 a 0.5,0.5 0 1,0 -1,0  M328.21 -407.46 L328.21 -407.46 316.21 -407.46 M322.21 -401.46 L322.21 -401.46 322.21 -413.46 M316.21 -407.46 Q 286.03 -407.46, 255.85 -329.51 T 195.49 -251.57 M 183.49 -251.57 m -1, 0 a 1,1 0 1,0 2,0 a 1,1 0 1,0 -2,0 M 183.49 -251.57 m -0.5, 0 a 0.5,0.5 0 1,0 1,0 a 0.5,0.5 0 1,0 -1,0  M183.49 -251.57 L183.49 -251.57 195.49 -251.57 M 183.49 -245.57 m -1, 0 a 1,1 0 1,0 2,0 a 1,1 0 1,0 -2,0 M 183.49 -245.57 m -0.5, 0 a 0.5,0.5 0 1,0 1,0 a 0.5,0.5 0 1,0 -1,0  M183.49 -245.57 L183.49 -245.57 190.49 -251.57 183.49 -257.57 M 183.49 -257.57 m -1, 0 a 1,1 0 1,0 2,0 a 1,1 0 1,0 -2,0 M 183.49 -257.57 m -0.5, 0 a 0.5,0.5 0 1,0 1,0 a 0.5,0.5 0 1,0 -1,0 " id="h1387993219" class="r"></path><path d="M 536.95 -257.46 m -1, 0 a 1,1 0 1,0 2,0 a 1,1 0 1,0 -2,0 M 536.95 -257.46 m -0.5, 0 a 0.5,0.5 0 1,0 1,0 a 0.5,0.5 0 1,0 -1,0  M536.95 -257.46 L536.95 -257.46 548.95 -257.46 M 536.95 -251.45999999999998 m -1, 0 a 1,1 0 1,0 2,0 a 1,1 0 1,0 -2,0 M 536.95 -251.45999999999998 m -0.5, 0 a 0.5,0.5 0 1,0 1,0 a 0.5,0.5 0 1,0 -1,0  M536.95 -251.45999999999998 L536.95 -251.45999999999998 543.95 -257.46 536.95 -263.46 M 536.95 -263.46 m -1, 0 a 1,1 0 1,0 2,0 a 1,1 0 1,0 -2,0 M 536.95 -263.46 m -0.5, 0 a 0.5,0.5 0 1,0 1,0 a 0.5,0.5 0 1,0 -1,0  M548.95 -257.46 C 598.95 -257.46, 604.2600000000001 34.14, 540.1 34.14 M 528.1 34.14 m -1, 0 a 1,1 0 1,0 2,0 a 1,1 0 1,0 -2,0 M 528.1 34.14 m -0.5, 0 a 0.5,0.5 0 1,0 1,0 a 0.5,0.5 0 1,0 -1,0  M528.1 34.14 L528.1 34.14 540.1 34.14 M534.1 40.14 L534.1 40.14 534.1 28.14" id="h3796718872" class="r"></path><path d="M 536.95 -232.45999999999998 m -1, 0 a 1,1 0 1,0 2,0 a 1,1 0 1,0 -2,0 M 536.95 -232.45999999999998 m -0.5, 0 a 0.5,0.5 0 1,0 1,0 a 0.5,0.5 0 1,0 -1,0  M536.95 -232.45999999999998 L536.95 -232.45999999999998 548.95 -232.45999999999998 M 536.95 -226.45999999999998 m -1, 0 a 1,1 0 1,0 2,0 a 1,1 0 1,0 -2,0 M 536.95 -226.45999999999998 m -0.5, 0 a 0.5,0.5 0 1,0 1,0 a 0.5,0.5 0 1,0 -1,0  M536.95 -226.45999999999998 L536.95 -226.45999999999998 543.95 -232.45999999999998 536.95 -238.45999999999998 M 536.95 -238.45999999999998 m -1, 0 a 1,1 0 1,0 2,0 a 1,1 0 1,0 -2,0 M 536.95 -238.45999999999998 m -0.5, 0 a 0.5,0.5 0 1,0 1,0 a 0.5,0.5 0 1,0 -1,0  M548.95 -232.45999999999998 C 599.974 -232.45999999999998, 599.59 411.28, 549.59 411.28 M 537.59 411.28 m -1, 0 a 1,1 0 1,0 2,0 a 1,1 0 1,0 -2,0 M 537.59 411.28 m -0.5, 0 a 0.5,0.5 0 1,0 1,0 a 0.5,0.5 0 1,0 -1,0  M537.59 411.28 L537.59 411.28 549.59 411.28 M543.59 417.28 L543.59 417.28 543.59 405.28" id="h2923728094" class="r"></path><path d="M -185.12 -70.32 m -1, 0 a 1,1 0 1,0 2,0 a 1,1 0 1,0 -2,0 M -185.12 -70.32 m -0.5, 0 a 0.5,0.5 0 1,0 1,0 a 0.5,0.5 0 1,0 -1,0  M-185.12 -70.32 L-185.12 -70.32 -173.12 -70.32 M-179.12 -64.32 L-179.12 -64.32 -179.12 -76.32 M-173.12 -70.32 Q -134.98 -70.32, -96.84 -73.44 T -20.57 -76.57 M -8.57 -76.57 m -1, 0 a 1,1 0 1,0 2,0 a 1,1 0 1,0 -2,0 M -8.57 -76.57 m -0.5, 0 a 0.5,0.5 0 1,0 1,0 a 0.5,0.5 0 1,0 -1,0  M-8.57 -76.57 L-8.57 -76.57 -20.57 -76.57 M -8.57 -70.57 m -1, 0 a 1,1 0 1,0 2,0 a 1,1 0 1,0 -2,0 M -8.57 -70.57 m -0.5, 0 a 0.5,0.5 0 1,0 1,0 a 0.5,0.5 0 1,0 -1,0  M-8.57 -70.57 L-8.57 -70.57 -15.57 -76.57 -8.57 -82.57 M -8.57 -82.57 m -1, 0 a 1,1 0 1,0 2,0 a 1,1 0 1,0 -2,0 M -8.57 -82.57 m -0.5, 0 a 0.5,0.5 0 1,0 1,0 a 0.5,0.5 0 1,0 -1,0 " id="h2024637867" class="r"></path><path d="M -170.72 150.20999999999998 m -1, 0 a 1,1 0 1,0 2,0 a 1,1 0 1,0 -2,0 M -170.72 150.20999999999998 m -0.5, 0 a 0.5,0.5 0 1,0 1,0 a 0.5,0.5 0 1,0 -1,0  M-170.72 150.20999999999998 L-170.72 150.20999999999998 -158.72 150.20999999999998 M-164.72 156.20999999999998 L-164.72 156.20999999999998 -164.72 144.20999999999998 M-158.72 150.20999999999998 Q -124.18 150.20999999999998, -89.64 49.32 T -20.57 -51.56999999999999 M -8.57 -51.56999999999999 m -1, 0 a 1,1 0 1,0 2,0 a 1,1 0 1,0 -2,0 M -8.57 -51.56999999999999 m -0.5, 0 a 0.5,0.5 0 1,0 1,0 a 0.5,0.5 0 1,0 -1,0  M-8.57 -51.56999999999999 L-8.57 -51.56999999999999 -20.57 -51.56999999999999 M -8.57 -45.56999999999999 m -1, 0 a 1,1 0 1,0 2,0 a 1,1 0 1,0 -2,0 M -8.57 -45.56999999999999 m -0.5, 0 a 0.5,0.5 0 1,0 1,0 a 0.5,0.5 0 1,0 -1,0  M-8.57 -45.56999999999999 L-8.57 -45.56999999999999 -15.57 -51.56999999999999 -8.57 -57.56999999999999 M -8.57 -57.56999999999999 m -1, 0 a 1,1 0 1,0 2,0 a 1,1 0 1,0 -2,0 M -8.57 -57.56999999999999 m -0.5, 0 a 0.5,0.5 0 1,0 1,0 a 0.5,0.5 0 1,0 -1,0 " id="h3536850431" class="r"></path><path d="M 682.14 -418 m -1, 0 a 1,1 0 1,0 2,0 a 1,1 0 1,0 -2,0 M 682.14 -418 m -0.5, 0 a 0.5,0.5 0 1,0 1,0 a 0.5,0.5 0 1,0 -1,0  M682.14 -418 L682.14 -418 670.14 -418 M676.14 -412 L676.14 -412 676.14 -424 M670.14 -418 Q 639.85 -418, 609.55 -350.23 T 548.95 -282.46 M 536.95 -282.46 m -1, 0 a 1,1 0 1,0 2,0 a 1,1 0 1,0 -2,0 M 536.95 -282.46 m -0.5, 0 a 0.5,0.5 0 1,0 1,0 a 0.5,0.5 0 1,0 -1,0  M536.95 -282.46 L536.95 -282.46 548.95 -282.46 M 536.95 -276.46 m -1, 0 a 1,1 0 1,0 2,0 a 1,1 0 1,0 -2,0 M 536.95 -276.46 m -0.5, 0 a 0.5,0.5 0 1,0 1,0 a 0.5,0.5 0 1,0 -1,0  M536.95 -276.46 L536.95 -276.46 543.95 -282.46 536.95 -288.46 M 536.95 -288.46 m -1, 0 a 1,1 0 1,0 2,0 a 1,1 0 1,0 -2,0 M 536.95 -288.46 m -0.5, 0 a 0.5,0.5 0 1,0 1,0 a 0.5,0.5 0 1,0 -1,0 " id="h2878947285" class="r"></path><path d="M 165.04 177 m -1, 0 a 1,1 0 1,0 2,0 a 1,1 0 1,0 -2,0 M 165.04 177 m -0.5, 0 a 0.5,0.5 0 1,0 1,0 a 0.5,0.5 0 1,0 -1,0  M165.04 177 L165.04 177 177.04 177 M 165.04 183 m -1, 0 a 1,1 0 1,0 2,0 a 1,1 0 1,0 -2,0 M 165.04 183 m -0.5, 0 a 0.5,0.5 0 1,0 1,0 a 0.5,0.5 0 1,0 -1,0  M165.04 183 L165.04 183 172.04 177 165.04 171 M 165.04 171 m -1, 0 a 1,1 0 1,0 2,0 a 1,1 0 1,0 -2,0 M 165.04 171 m -0.5, 0 a 0.5,0.5 0 1,0 1,0 a 0.5,0.5 0 1,0 -1,0  M177.04 177 C 256.56 177, 245.49 -226.57, 195.49 -226.57 M 183.49 -226.57 m -1, 0 a 1,1 0 1,0 2,0 a 1,1 0 1,0 -2,0 M 183.49 -226.57 m -0.5, 0 a 0.5,0.5 0 1,0 1,0 a 0.5,0.5 0 1,0 -1,0  M183.49 -226.57 L183.49 -226.57 195.49 -226.57 M189.49 -220.57 L189.49 -220.57 189.49 -232.57" id="h1680737701" class="r"></path></g><g class="hrs"></g><g class="ts"><svg width="204.72" height="300" x="332.87" y="354.28" id="h1909057148" class="t"><rect height="40" width="204.72" class="th"></rect><text x="13" y="25" class="tht">Supplier</text><rect height="260" width="204.72" class="t-bg"></rect><text x="13" y="61" class="tf pk">SupplierId<tspan x="191.72" class="ty">int</tspan></text><path d="M7,14A2,2 0 0,1 5,12A2,2 0 0,1 7,10A2,2 0 0,1 9,12A2,2 0 0,1 7,14M12.65,10C11.83,7.67 9.61,6 7, 6A6, 6 0 0, 0 1, 12A6, 6 0 0, 0 7, 18C9.61, 18 11.83, 16.33 12.65, 14H17V18H21V14H23V10H12.65Z" class="i pk" transform="translate(159.046171875, 48) scale(0.65)"></path><text x="13" y="86" class="tf">SupplierName<tspan x="191.72" class="ty">varchar(250)</tspan></text><text x="13" y="111" class="tf">SupplierINN<tspan x="191.72" class="ty">int</tspan></text><text x="13" y="136" class="tf">SupplierKPP<tspan x="191.72" class="ty">int</tspan></text><text x="13" y="161" class="tf">SupplierBIK<tspan x="191.72" class="ty">int</tspan></text><text x="13" y="186" class="tf">SupplierBank<tspan x="191.72" class="ty">varchar(250)</tspan></text><text x="13" y="211" class="tf">SupplierAcc<tspan x="191.72" class="ty">int</tspan></text><text x="13" y="236" class="tf">SupplierKcc<tspan x="191.72" class="ty">int</tspan></text><text x="13" y="261" class="tf">SupplierPhone<tspan x="191.72" class="ty">int</tspan></text><text x="13" y="286" class="tf">SupplierAddress<tspan x="191.72" class="ty">varchar(max)</tspan></text></svg><svg width="210.06" height="300" x="318.04" y="-22.86" id="h1304670300" class="t"><rect height="40" width="210.06" class="th"></rect><text x="13" y="25" class="tht">Customer</text><rect height="260" width="210.06" class="t-bg"></rect><text x="13" y="61" class="tf pk">CustomerId<tspan x="197.06" class="ty">int</tspan></text><path d="M7,14A2,2 0 0,1 5,12A2,2 0 0,1 7,10A2,2 0 0,1 9,12A2,2 0 0,1 7,14M12.65,10C11.83,7.67 9.61,6 7, 6A6, 6 0 0, 0 1, 12A6, 6 0 0, 0 7, 18C9.61, 18 11.83, 16.33 12.65, 14H17V18H21V14H23V10H12.65Z" class="i pk" transform="translate(164.386171875, 48) scale(0.65)"></path><text x="13" y="86" class="tf">Customer<tspan x="197.06" class="ty">varchar(250)</tspan></text><text x="13" y="111" class="tf">CustomerINN<tspan x="197.06" class="ty">int</tspan></text><text x="13" y="136" class="tf">CustomerKPP<tspan x="197.06" class="ty">int</tspan></text><text x="13" y="161" class="tf">CustomerBIK<tspan x="197.06" class="ty">int</tspan></text><text x="13" y="186" class="tf">CustomerBank<tspan x="197.06" class="ty">varchar(250)</tspan></text><text x="13" y="211" class="tf">CustomerAcc<tspan x="197.06" class="ty">int</tspan></text><text x="13" y="236" class="tf">CustomerKcc<tspan x="197.06" class="ty">int</tspan></text><text x="13" y="261" class="tf">CustomerPhone<tspan x="197.06" class="ty">int</tspan></text><text x="13" y="286" class="tf">CustomerAddress<tspan x="197.06" class="ty">varchar(250)</tspan></text></svg><svg width="186.73" height="300" x="-368.93" y="-468.93" id="h2270756638" class="t"><rect height="40" width="186.73" class="th"></rect><text x="13" y="25" class="tht">Store</text><rect height="260" width="186.73" class="t-bg"></rect><text x="13" y="61" class="tf pk">StoreId<tspan x="173.73" class="ty">int</tspan></text><path d="M7,14A2,2 0 0,1 5,12A2,2 0 0,1 7,10A2,2 0 0,1 9,12A2,2 0 0,1 7,14M12.65,10C11.83,7.67 9.61,6 7, 6A6, 6 0 0, 0 1, 12A6, 6 0 0, 0 7, 18C9.61, 18 11.83, 16.33 12.65, 14H17V18H21V14H23V10H12.65Z" class="i pk" transform="translate(141.056171875, 48) scale(0.65)"></path><text x="13" y="86" class="tf">StoreName<tspan x="173.73" class="ty">varchar(250)</tspan></text><text x="13" y="111" class="tf">StoreINN<tspan x="173.73" class="ty">int</tspan></text><text x="13" y="136" class="tf">StoreKPP<tspan x="173.73" class="ty">int</tspan></text><text x="13" y="161" class="tf">StoreBIK<tspan x="173.73" class="ty">int</tspan></text><text x="13" y="186" class="tf">StoreBank<tspan x="173.73" class="ty">varchar(250)</tspan></text><text x="13" y="211" class="tf">StoreAcc<tspan x="173.73" class="ty">int</tspan></text><text x="13" y="236" class="tf">StoreKcc<tspan x="173.73" class="ty">int</tspan></text><text x="13" y="261" class="tf">StorePhone<tspan x="173.73" class="ty">int</tspan></text><text x="13" y="286" class="tf">StoreAddress<tspan x="173.73" class="ty">varchar(250)</tspan></text></svg><svg width="208.74" height="325" x="328.21" y="-464.46" id="h537593056" class="t"><rect height="40" width="208.74" class="th"></rect><text x="13" y="25" class="tht">Products</text><rect height="285" width="208.74" class="t-bg"></rect><text x="13" y="61" class="tf pk">Productsid<tspan x="195.74" class="ty">int</tspan></text><path d="M7,14A2,2 0 0,1 5,12A2,2 0 0,1 7,10A2,2 0 0,1 9,12A2,2 0 0,1 7,14M12.65,10C11.83,7.67 9.61,6 7, 6A6, 6 0 0, 0 1, 12A6, 6 0 0, 0 7, 18C9.61, 18 11.83, 16.33 12.65, 14H17V18H21V14H23V10H12.65Z" class="i pk" transform="translate(163.066171875, 48) scale(0.65)"></path><text x="13" y="86" class="tf">ProductsName<tspan x="195.74" class="ty">varchar(250)</tspan></text><text x="13" y="111" class="tf">ProductsArticle<tspan x="195.74" class="ty">int</tspan></text><text x="13" y="136" class="tf">ProductsLink<tspan x="195.74" class="ty">varchar(250)</tspan></text><text x="13" y="161" class="tf">ProductsBarCode<tspan x="195.74" class="ty">varchar(250)</tspan></text><text x="13" y="186" class="tf fk">ProductsType<tspan x="195.74" class="ty">int</tspan></text><text x="13" y="211" class="tf fk">CustomerId<tspan x="195.74" class="ty">int</tspan></text><text x="13" y="236" class="tf fk">SupplierId<tspan x="195.74" class="ty">int</tspan></text><text x="13" y="261" class="tf">ProductsUnit<tspan x="195.74" class="ty">varchar(250)</tspan></text><text x="13" y="286" class="tf">TypeDelivery<tspan x="195.74" class="ty">varchar(20)</tspan></text><text x="13" y="311" class="tf">DeliveryId<tspan x="195.74" class="ty">int</tspan></text></svg><svg width="180.06" height="100" x="-365.18" y="-127.32" id="h2235968642" class="t"><rect height="40" width="180.06" class="th"></rect><text x="13" y="25" class="tht">Operation_status</text><rect height="60" width="180.06" class="t-bg"></rect><text x="13" y="61" class="tf pk">Statusid<tspan x="167.06" class="ty">int</tspan></text><path d="M7,14A2,2 0 0,1 5,12A2,2 0 0,1 7,10A2,2 0 0,1 9,12A2,2 0 0,1 7,14M12.65,10C11.83,7.67 9.61,6 7, 6A6, 6 0 0, 0 1, 12A6, 6 0 0, 0 7, 18C9.61, 18 11.83, 16.33 12.65, 14H17V18H21V14H23V10H12.65Z" class="i pk" transform="translate(134.386171875, 48) scale(0.65)"></path><text x="13" y="86" class="tf">StatusName<tspan x="167.06" class="ty">varchar(250)</tspan></text></svg><svg width="195.17" height="200" x="-365.89" y="93.21" id="h1267000626" class="t"><rect height="40" width="195.17" class="th"></rect><text x="13" y="25" class="tht">Worker</text><rect height="160" width="195.17" class="t-bg"></rect><text x="13" y="61" class="tf pk">Workerid<tspan x="182.17" class="ty">int</tspan></text><path d="M7,14A2,2 0 0,1 5,12A2,2 0 0,1 7,10A2,2 0 0,1 9,12A2,2 0 0,1 7,14M12.65,10C11.83,7.67 9.61,6 7, 6A6, 6 0 0, 0 1, 12A6, 6 0 0, 0 7, 18C9.61, 18 11.83, 16.33 12.65, 14H17V18H21V14H23V10H12.65Z" class="i pk" transform="translate(149.496171875, 48) scale(0.65)"></path><text x="13" y="86" class="tf">WorkerFIO<tspan x="182.17" class="ty">varchar(250)</tspan></text><text x="13" y="111" class="tf">WorkerDoc<tspan x="182.17" class="ty">varchar(250)</tspan></text><text x="13" y="136" class="tf">WorkerAdd<tspan x="182.17" class="ty">varchar(250)</tspan></text><text x="13" y="161" class="tf">Workerhone<tspan x="182.17" class="ty">int</tspan></text><text x="13" y="186" class="tf">WorkerPosition<tspan x="182.17" class="ty">varchar(250)</tspan></text></svg><svg width="213.41" height="125" x="682.14" y="-475" id="h3390641420" class="t"><rect height="40" width="213.41" class="th"></rect><text x="13" y="25" class="tht">TypeProduct</text><rect height="85" width="213.41" class="t-bg"></rect><text x="13" y="61" class="tf pk">TypeProductid<tspan x="200.41" class="ty">int</tspan></text><path d="M7,14A2,2 0 0,1 5,12A2,2 0 0,1 7,10A2,2 0 0,1 9,12A2,2 0 0,1 7,14M12.65,10C11.83,7.67 9.61,6 7, 6A6, 6 0 0, 0 1, 12A6, 6 0 0, 0 7, 18C9.61, 18 11.83, 16.33 12.65, 14H17V18H21V14H23V10H12.65Z" class="i pk" transform="translate(167.736171875, 48) scale(0.65)"></path><text x="13" y="86" class="tf">TypeProductName<tspan x="200.41" class="ty">varchar(250)</tspan></text><text x="13" y="111" class="tf">TypeProductPrice<tspan x="200.41" class="ty">int</tspan></text></svg><svg width="192.06" height="350" x="-8.57" y="-358.57" id="h4176899315" class="t"><rect height="40" width="192.06" class="th"></rect><text x="13" y="25" class="tht">Order</text><rect height="310" width="192.06" class="t-bg"></rect><text x="13" y="61" class="tf pk">OrderId<tspan x="179.06" class="ty">int</tspan></text><path d="M7,14A2,2 0 0,1 5,12A2,2 0 0,1 7,10A2,2 0 0,1 9,12A2,2 0 0,1 7,14M12.65,10C11.83,7.67 9.61,6 7, 6A6, 6 0 0, 0 1, 12A6, 6 0 0, 0 7, 18C9.61, 18 11.83, 16.33 12.65, 14H17V18H21V14H23V10H12.65Z" class="i pk" transform="translate(146.386171875, 48) scale(0.65)"></path><text x="13" y="86" class="tf">OrderBarCode<tspan x="179.06" class="ty">varchar(250)</tspan></text><text x="13" y="111" class="tf fk">Productsid<tspan x="179.06" class="ty">int</tspan></text><text x="13" y="136" class="tf fk">DeliveryId<tspan x="179.06" class="ty">int</tspan></text><text x="13" y="161" class="tf fk">CustomerId<tspan x="179.06" class="ty">int</tspan></text><text x="13" y="186" class="tf fk">SupplierId<tspan x="179.06" class="ty">int</tspan></text><text x="13" y="211" class="tf fk">StoreId<tspan x="179.06" class="ty">int</tspan></text><text x="13" y="236" class="tf">OrderDate<tspan x="179.06" class="ty">Date</tspan></text><text x="13" y="261" class="tf">DeliveryDate<tspan x="179.06" class="ty">Date</tspan></text><text x="13" y="286" class="tf fk">Statusid<tspan x="179.06" class="ty">int</tspan></text><text x="13" y="311" class="tf fk">Workerid<tspan x="179.06" class="ty">int</tspan></text><text x="13" y="336" class="tf">Quantity<tspan x="179.06" class="ty">int</tspan></text></svg><svg width="140.04" height="150" x="25" y="120" id="h1697372069" class="t"><rect height="40" width="140.04" class="th"></rect><text x="13" y="25" class="tht">Delivery</text><rect height="110" width="140.04" class="t-bg"></rect><text x="13" y="61" class="tf pk">DeliveryId<tspan x="127.03999999999999" class="ty">int</tspan></text><path d="M7,14A2,2 0 0,1 5,12A2,2 0 0,1 7,10A2,2 0 0,1 9,12A2,2 0 0,1 7,14M12.65,10C11.83,7.67 9.61,6 7, 6A6, 6 0 0, 0 1, 12A6, 6 0 0, 0 7, 18C9.61, 18 11.83, 16.33 12.65, 14H17V18H21V14H23V10H12.65Z" class="i pk" transform="translate(94.36617187499999, 48) scale(0.65)"></path><text x="13" y="86" class="tf">Productsid<tspan x="127.03999999999999" class="ty">int</tspan></text><text x="13" y="111" class="tf">DeliverySize<tspan x="127.03999999999999" class="ty">int</tspan></text><text x="13" y="136" class="tf">DeliveryDate<tspan x="127.03999999999999" class="ty">Date</tspan></text></svg></g></g><text class="qdbd-link" x="10" y="20">www.quickdatabasediagrams.com</text></svg>